<svg version="1.1" id="Layer_1" xmlns="http://www.w3.org/2000/svg" xmlns:xlink="http://www.w3.org/1999/xlink" x="0px" y="0px"
	 width="100%" viewBox="0 0 1462 692" enable-background="new 0 0 1462 692" xml:space="preserve">
<path fill="#353535" opacity="1.000000" stroke="none" 
	d="
M982.000000,693.000000 
	C654.704529,693.000000 327.909088,693.000000 1.056806,693.000000 
	C1.056806,462.397949 1.056806,231.795868 1.056806,1.096898 
	C488.212250,1.096898 975.424561,1.096898 1462.818359,1.096898 
	C1462.818359,231.666550 1462.818359,462.333252 1462.818359,693.000000 
	C1302.795654,693.000000 1142.647827,693.000000 982.000000,693.000000 
M901.240112,327.516785 
	C907.726257,337.445282 914.212402,347.373749 921.160034,358.008667 
	C928.301514,346.701721 934.856201,336.323730 941.736511,325.962769 
	C941.736511,325.962769 942.062012,325.942963 942.628967,326.400269 
	C946.511536,336.942688 950.394043,347.485107 954.215942,357.862976 
	C963.704163,357.862976 972.671021,357.862976 982.025024,357.862976 
	C981.381714,356.092346 980.846130,354.558716 980.269714,353.040558 
	C966.475220,316.708588 952.696533,280.370575 938.857361,244.055664 
	C936.683167,238.350601 935.709595,230.549805 931.493958,227.718109 
	C927.213684,224.842972 919.596375,227.107269 913.461914,226.751556 
	C910.184509,226.561508 908.961731,227.878479 907.866333,230.798279 
	C895.674316,263.295624 883.324280,295.733704 871.009094,328.184784 
	C868.234558,335.495850 865.429749,342.795380 862.350281,350.855652 
	C852.127869,336.276398 842.461548,322.490234 832.755127,308.646820 
	C833.888977,308.002869 834.447693,307.639740 835.043396,307.353882 
	C853.705261,298.399200 861.028564,283.524902 857.983337,260.743164 
	C855.629150,243.131393 843.531006,229.878036 824.239563,228.021133 
	C804.923035,226.161819 785.329468,227.177826 765.857056,226.963623 
	C765.618103,226.960999 765.374695,227.357559 765.264404,227.453629 
	C765.264404,270.967743 765.264404,314.361603 765.264404,357.772705 
	C774.008423,357.772705 782.440125,357.772705 791.325195,357.772705 
	C791.325195,322.481415 791.325195,287.416595 791.325195,252.203278 
	C800.221924,252.203278 808.709900,251.666718 817.093445,252.371582 
	C823.905273,252.944305 829.315613,256.432800 831.064209,263.896606 
	C834.052490,276.652008 827.354431,285.879578 814.024048,286.983887 
	C810.796387,287.251282 807.527771,287.023651 804.088318,287.023651 
	C804.088318,295.608765 804.016907,303.266052 804.153992,310.919617 
	C804.178772,312.298584 804.792053,313.847565 805.588806,315.004547 
	C814.930725,328.570557 824.323975,342.101837 833.829773,355.553223 
	C834.637573,356.696289 836.342957,357.885376 837.642273,357.897644 
	C854.289673,358.054932 870.938965,358.001434 887.586243,358.001434 
	C891.511536,347.512360 895.348938,337.258118 899.711060,327.007996 
	C900.060852,327.007172 900.410583,327.006348 901.240112,327.516785 
M344.135040,477.341766 
	C350.859955,487.782776 357.584839,498.223816 364.690247,509.255615 
	C371.909760,498.159546 378.701752,487.720520 386.144653,477.642914 
	C389.633484,486.969482 393.068207,496.317047 396.671326,505.599274 
	C397.193420,506.944244 398.491425,508.965698 399.483398,508.997070 
	C408.031586,509.267273 416.591980,509.152466 425.867615,509.152466 
	C409.024292,464.895264 392.499603,421.475250 376.016602,378.164856 
	C368.186523,378.164856 360.725006,378.164856 353.103912,378.164856 
	C336.600830,421.698914 320.133484,465.138672 303.440552,509.173553 
	C311.960205,509.173553 319.766541,509.028687 327.562683,509.246887 
	C330.566498,509.330994 331.898102,508.311615 332.900116,505.508484 
	C336.350006,495.857391 340.101624,486.314087 344.135040,477.341766 
M480.964661,384.338104 
	C474.038757,408.883423 467.112823,433.428741 460.186920,457.974091 
	C459.869019,457.924957 459.551117,457.875854 459.233215,457.826752 
	C451.065582,431.235138 442.897980,404.643555 434.805847,378.297791 
	C425.305481,378.297791 416.251587,378.297791 406.807678,378.297791 
	C420.755157,422.141144 434.578796,465.595245 448.441986,509.173676 
	C454.801208,509.173676 460.797089,508.954529 466.766418,509.257965 
	C470.204254,509.432709 471.642944,508.408417 472.592712,504.984283 
	C477.530640,487.181824 482.780243,469.465759 487.924530,451.720551 
	C490.220184,443.801819 492.523438,435.885254 494.823212,427.967682 
	C495.133820,427.990540 495.444427,428.013397 495.755066,428.036224 
	C503.316925,454.988068 510.878754,481.939911 518.452087,508.932556 
	C526.374634,508.932556 533.979858,508.932556 541.578674,508.932556 
	C555.538757,465.289581 569.428345,421.866943 583.388733,378.223206 
	C573.660767,378.223206 564.537781,378.223206 555.405457,378.223206 
	C547.122314,404.858826 538.902405,431.291168 530.265747,459.063751 
	C522.474915,431.313782 515.032593,404.805115 507.565308,378.207611 
	C499.181702,378.207611 491.082184,378.207611 482.797791,378.207611 
	C482.228546,380.075684 481.699982,381.810211 480.964661,384.338104 
M1055.806274,430.500092 
	C1055.806274,413.072784 1055.806274,395.645508 1055.806274,377.994537 
	C1048.797119,377.994537 1042.467285,378.175568 1036.155151,377.919312 
	C1032.929810,377.788361 1031.142944,378.722504 1029.532837,381.677704 
	C1023.249695,393.209900 1016.615173,404.550598 1010.113464,415.963745 
	C1003.899353,426.872101 997.687805,437.781921 991.142639,449.275055 
	C989.823425,447.121521 988.856384,445.637115 987.981384,444.100342 
	C976.133911,423.292419 964.330139,402.459503 952.397583,381.700562 
	C951.533752,380.197876 949.805054,378.233398 948.395935,378.164093 
	C941.131287,377.807007 933.839661,377.998413 926.386475,377.998413 
	C926.386475,421.902283 926.386475,465.302856 926.386475,508.764893 
	C935.335815,508.764893 944.024536,508.764893 953.199707,508.764893 
	C953.199707,484.209106 953.199707,460.061890 953.199707,434.658020 
	C961.292053,448.600464 969.366821,461.054749 975.895691,474.272644 
	C980.267639,483.123657 985.804993,486.897644 995.495605,485.308228 
	C998.151672,484.872589 999.947998,484.526825 1001.348267,481.932098 
	C1005.058228,475.057556 1009.123413,468.374451 1013.059265,461.622162 
	C1018.119324,452.941345 1023.191223,444.267395 1028.258057,435.590485 
	C1028.585693,435.668121 1028.913452,435.745728 1029.241211,435.823334 
	C1029.241211,460.171173 1029.241211,484.519012 1029.241211,508.796265 
	C1038.390747,508.796265 1046.952515,508.796265 1055.805786,508.796265 
	C1055.805786,482.778351 1055.805786,457.139221 1055.806274,430.500092 
M390.634888,257.734955 
	C394.701447,261.113831 398.767975,264.492676 403.238739,268.207397 
	C409.748871,263.406952 416.741455,258.250763 423.727814,253.099152 
	C403.364960,225.630707 366.072144,217.866913 337.023895,234.505890 
	C307.878387,251.200562 295.691345,286.907593 308.559174,317.905304 
	C321.442535,348.940460 355.805634,365.661530 387.703735,356.593140 
	C418.989410,347.698853 440.854797,318.532501 436.246277,279.351379 
	C414.228210,279.351379 392.201843,279.351379 370.232239,279.351379 
	C370.232239,288.151917 370.232239,296.594879 370.232239,305.569275 
	C382.671295,305.569275 394.906677,305.569275 407.506897,305.569275 
	C407.111267,307.098083 406.991150,308.086273 406.609375,308.960205 
	C398.652954,327.173309 377.109192,336.685974 357.754303,330.559631 
	C338.399567,324.433289 326.501312,304.265320 330.617188,284.624664 
	C336.146912,258.237213 364.537048,243.492355 390.634888,257.734955 
M620.875854,264.499969 
	C620.875854,279.014618 620.875854,293.529297 620.875854,309.379547 
	C618.786072,306.547638 617.583618,304.971680 616.436829,303.356140 
	C599.284119,279.192902 582.161255,255.008408 564.941345,230.893204 
	C563.788269,229.278427 561.977356,227.118973 560.364075,227.022385 
	C553.278564,226.598145 546.153137,226.839432 538.963013,226.839432 
	C538.963013,270.811127 538.963013,314.212708 538.963013,357.657043 
	C547.777893,357.657043 556.329224,357.657043 565.178345,357.657043 
	C565.178345,330.734192 565.178345,304.153656 565.178345,276.529938 
	C566.740967,278.570282 567.731567,279.783936 568.637146,281.057953 
	C586.094543,305.617065 603.524719,330.195557 621.038269,354.714508 
	C621.996277,356.055664 623.594910,357.789703 624.959229,357.848053 
	C632.229675,358.159210 639.520447,357.994568 646.922913,357.994568 
	C646.922913,314.091583 646.922913,270.683777 646.922913,227.188339 
	C638.146240,227.188339 629.612061,227.188339 620.875854,227.188339 
	C620.875854,239.530136 620.875854,251.515030 620.875854,264.499969 
M781.703125,439.030182 
	C781.702820,442.019287 781.529358,445.019989 781.728638,447.995728 
	C784.178162,484.575439 814.253845,511.169830 851.698425,509.922699 
	C885.789612,508.787323 914.105713,478.813904 914.167419,443.797424 
	C914.230835,407.835693 886.619263,378.904327 850.673096,377.268066 
	C814.897095,375.639587 784.786560,402.234955 781.703125,439.030182 
M770.363220,490.789429 
	C781.911621,470.878540 775.702087,448.790009 755.442810,438.121887 
	C751.633179,436.115845 747.568970,434.590271 743.608704,432.874023 
	C735.237122,429.246155 726.799500,425.763580 718.506104,421.965576 
	C714.862915,420.297180 713.132874,417.026337 713.454651,412.976349 
	C713.782715,408.846619 715.795898,405.605774 719.705994,404.081329 
	C722.296021,403.071594 725.314331,401.765472 727.830933,402.239044 
	C733.934570,403.387604 740.128967,404.890228 745.768250,407.410461 
	C750.455505,409.505280 754.404175,413.252686 758.867126,416.399963 
	C764.200745,409.449249 769.410339,402.660187 775.151611,395.178223 
	C768.499756,390.927399 762.820557,386.423065 756.441162,383.393127 
	C740.274902,375.714752 723.575623,373.665039 706.921326,382.001129 
	C683.391541,393.778595 679.191040,424.683777 699.027893,441.073792 
	C703.943542,445.135254 709.882874,448.141235 715.707031,450.875580 
	C723.962524,454.751434 732.681030,457.639069 740.948181,461.492767 
	C747.239624,464.425415 749.625549,468.840851 748.778259,474.026459 
	C747.761536,480.248810 743.193787,482.869049 737.712280,484.014191 
	C723.954956,486.888275 712.494385,482.473602 703.028748,472.403564 
	C701.035706,470.283325 699.289551,467.930939 697.184265,465.389282 
	C691.257751,472.542664 685.653503,479.307190 679.980469,486.154633 
	C691.249939,499.434296 704.930908,508.054260 722.165527,509.792816 
	C741.041199,511.696869 758.008423,507.833160 770.363220,490.789429 
M985.498291,251.844528 
	C990.611145,251.844528 995.723999,251.844528 1001.269897,251.844528 
	C1001.269897,287.431641 1001.269897,322.491364 1001.269897,357.751770 
	C1010.283508,357.751770 1018.847107,357.751770 1028.025391,357.751770 
	C1028.025391,322.323059 1028.025391,287.144470 1028.025391,251.682220 
	C1040.254272,251.682220 1051.868896,251.682220 1063.734009,251.682220 
	C1063.734009,243.331482 1063.734009,235.272797 1063.734009,227.183136 
	C1030.981079,227.183136 998.469421,227.183136 965.913330,227.183136 
	C965.913330,235.497147 965.913330,243.448349 965.913330,251.844528 
	C972.257690,251.844528 978.378784,251.844528 985.498291,251.844528 
M1128.500000,431.143280 
	C1110.371826,431.143280 1092.243652,431.143280 1073.902832,431.143280 
	C1073.902832,439.755707 1073.902832,447.973969 1073.902832,456.121826 
	C1102.308960,456.121826 1130.360352,456.121826 1158.304688,456.121826 
	C1158.304688,447.615204 1158.304688,439.526154 1158.304688,431.143280 
	C1148.460205,431.143280 1138.980103,431.143280 1128.500000,431.143280 
M591.927673,456.513885 
	C619.497375,456.513885 647.067078,456.513885 674.677368,456.513885 
	C674.677368,447.821533 674.677368,439.736389 674.677368,431.400024 
	C646.403442,431.400024 618.385315,431.400024 589.870300,431.400024 
	C589.870300,438.402252 589.803955,445.178375 589.921814,451.951324 
	C589.947937,453.449463 590.625427,454.936249 591.927673,456.513885 
M1135.500000,377.998169 
	C1114.962769,377.998169 1094.425659,377.998169 1073.917480,377.998169 
	C1073.917480,386.686707 1073.917480,394.737183 1073.917480,402.674530 
	C1102.274170,402.674530 1130.288818,402.674530 1158.287354,402.674530 
	C1158.287354,394.298523 1158.287354,386.254944 1158.287354,377.998169 
	C1150.785767,377.998169 1143.642822,377.998169 1135.500000,377.998169 
M438.857666,249.256409 
	C438.721619,253.100815 441.656738,251.789429 443.468506,251.794525 
	C468.792023,251.865768 494.115753,251.847763 519.439453,251.829788 
	C520.864990,251.828781 522.290344,251.639603 523.629150,251.544174 
	C523.629150,243.108719 523.629150,235.172897 523.629150,227.112396 
	C495.305756,227.112396 467.252411,227.112396 438.854218,227.112396 
	C438.854218,234.362152 438.854218,241.328186 438.857666,249.256409 
M674.916626,392.474731 
	C674.916626,387.721161 674.916626,382.967621 674.916626,378.304199 
	C646.206177,378.304199 618.165771,378.304199 590.216309,378.304199 
	C590.216309,386.665558 590.216309,394.718781 590.216309,402.683716 
	C618.575562,402.683716 646.605103,402.683716 674.916626,402.683716 
	C674.916626,399.402252 674.916626,396.430847 674.916626,392.474731 
M1071.920288,356.299011 
	C1073.370850,356.869415 1074.819336,357.931458 1076.272095,357.937164 
	C1101.889038,358.038086 1127.506470,358.015350 1153.123779,357.994751 
	C1154.374634,357.993744 1155.625366,357.767578 1156.705322,357.662842 
	C1156.705322,349.464142 1156.705322,341.703308 1156.705322,333.725739 
	C1128.410645,333.725739 1100.367432,333.725739 1071.909180,333.725739 
	C1071.909180,341.089050 1071.909180,348.209808 1071.920288,356.299011 
M724.500000,358.010254 
	C732.925293,358.010254 741.350586,358.010254 749.752441,358.010254 
	C749.752441,349.580994 749.752441,341.705505 749.752441,333.777100 
	C721.386047,333.777100 693.344055,333.777100 665.349548,333.777100 
	C665.349548,341.980316 665.349548,349.879181 665.349548,358.010254 
	C684.946167,358.010254 704.223083,358.010254 724.500000,358.010254 
M439.699799,357.927277 
	C467.712219,357.927277 495.724609,357.927277 523.653564,357.927277 
	C523.653564,349.482849 523.653564,341.729980 523.653564,333.729736 
	C495.370514,333.729736 467.337952,333.729736 438.969238,333.729736 
	C438.969238,341.733093 438.969238,349.510193 439.699799,357.927277 
M1075.607544,305.168884 
	C1102.559448,305.168884 1129.511353,305.168884 1156.575439,305.168884 
	C1156.575439,296.527588 1156.575439,288.331604 1156.575439,280.210785 
	C1128.257812,280.210785 1100.310791,280.210785 1071.924561,280.210785 
	C1071.924561,287.863953 1071.840454,295.317078 1072.043213,302.762360 
	C1072.065552,303.586792 1073.726440,304.366577 1075.607544,305.168884 
M707.499939,305.169159 
	C721.592468,305.169159 735.684998,305.169159 749.792480,305.169159 
	C749.792480,296.472229 749.792480,288.397369 749.792480,280.295837 
	C721.456726,280.295837 693.394043,280.295837 665.317261,280.295837 
	C665.317261,288.675964 665.317261,296.757202 665.317261,305.169159 
	C679.228027,305.169159 692.863953,305.169159 707.499939,305.169159 
M504.499512,305.169678 
	C510.904938,305.169678 517.310364,305.169678 523.522217,305.169678 
	C523.522217,296.277496 523.522217,288.211426 523.522217,280.371399 
	C495.092682,280.371399 467.034424,280.371399 439.217072,280.371399 
	C439.217072,288.827789 439.217072,296.909576 439.217072,305.169678 
	C460.882324,305.169678 482.191040,305.169678 504.499512,305.169678 
M1117.500000,251.841614 
	C1130.586182,251.841614 1143.672241,251.841614 1156.701904,251.841614 
	C1156.701904,243.132324 1156.701904,235.189941 1156.701904,227.095322 
	C1128.396973,227.095322 1100.341187,227.095322 1072.253906,227.095322 
	C1072.253906,235.422424 1072.253906,243.475250 1072.253906,251.841614 
	C1087.227417,251.841614 1101.863647,251.841614 1117.500000,251.841614 
M732.498352,251.841614 
	C738.270020,251.841614 744.041626,251.841614 749.710815,251.841614 
	C749.710815,243.109116 749.710815,235.036545 749.710815,227.043121 
	C721.403931,227.043121 693.455933,227.043121 665.325317,227.043121 
	C665.325317,235.319702 665.325317,243.376312 665.325317,251.841614 
	C687.575073,251.841614 709.537109,251.841614 732.498352,251.841614 
M1157.131104,484.871429 
	C1129.413696,484.871429 1101.696289,484.871429 1073.973267,484.871429 
	C1073.973267,493.218475 1073.973267,501.072876 1073.973267,508.772827 
	C1102.363159,508.772827 1130.354492,508.772827 1158.025635,508.772827 
	C1158.025635,500.630768 1158.025635,492.892975 1157.131104,484.871429 
M623.500061,484.830841 
	C612.412292,484.830841 601.324524,484.830841 590.249329,484.830841 
	C590.249329,493.266022 590.249329,501.137604 590.249329,508.789307 
	C618.635193,508.789307 646.658264,508.789307 674.627197,508.789307 
	C674.627197,500.662048 674.627197,492.917725 674.627197,484.830841 
	C657.726807,484.830841 641.113464,484.830841 623.500061,484.830841 
z"/>
<path fill="#FEFEFE" opacity="1.000000" stroke="none" 
	d="
M899.186340,327.003845 
	C895.348938,337.258118 891.511536,347.512360 887.586243,358.001434 
	C870.938965,358.001434 854.289673,358.054932 837.642273,357.897644 
	C836.342957,357.885376 834.637573,356.696289 833.829773,355.553223 
	C824.323975,342.101837 814.930725,328.570557 805.588806,315.004547 
	C804.792053,313.847565 804.178772,312.298584 804.153992,310.919617 
	C804.016907,303.266052 804.088318,295.608765 804.088318,287.023651 
	C807.527771,287.023651 810.796387,287.251282 814.024048,286.983887 
	C827.354431,285.879578 834.052490,276.652008 831.064209,263.896606 
	C829.315613,256.432800 823.905273,252.944305 817.093445,252.371582 
	C808.709900,251.666718 800.221924,252.203278 791.325195,252.203278 
	C791.325195,287.416595 791.325195,322.481415 791.325195,357.772705 
	C782.440125,357.772705 774.008423,357.772705 765.264404,357.772705 
	C765.264404,314.361603 765.264404,270.967743 765.264404,227.453629 
	C765.374695,227.357559 765.618103,226.960999 765.857056,226.963623 
	C785.329468,227.177826 804.923035,226.161819 824.239563,228.021133 
	C843.531006,229.878036 855.629150,243.131393 857.983337,260.743164 
	C861.028564,283.524902 853.705261,298.399200 835.043396,307.353882 
	C834.447693,307.639740 833.888977,308.002869 832.755127,308.646820 
	C842.461548,322.490234 852.127869,336.276398 862.350281,350.855652 
	C865.429749,342.795380 868.234558,335.495850 871.009094,328.184784 
	C883.324280,295.733704 895.674316,263.295624 907.866333,230.798279 
	C908.961731,227.878479 910.184509,226.561508 913.461914,226.751556 
	C919.596375,227.107269 927.213684,224.842972 931.493958,227.718109 
	C935.709595,230.549805 936.683167,238.350601 938.857361,244.055664 
	C952.696533,280.370575 966.475220,316.708588 980.269714,353.040558 
	C980.846130,354.558716 981.381714,356.092346 982.025024,357.862976 
	C972.671021,357.862976 963.704163,357.862976 954.215942,357.862976 
	C950.394043,347.485107 946.511536,336.942688 942.345703,325.790131 
	C935.118713,306.125702 928.174988,287.071411 920.788391,266.801758 
	C913.252930,287.802002 906.219604,307.402924 899.186340,327.003845 
z"/>
<path fill="#FDFDFD" opacity="1.000000" stroke="none" 
	d="
M481.068054,383.941406 
	C481.699982,381.810211 482.228546,380.075684 482.797791,378.207611 
	C491.082184,378.207611 499.181702,378.207611 507.565308,378.207611 
	C515.032593,404.805115 522.474915,431.313782 530.265747,459.063751 
	C538.902405,431.291168 547.122314,404.858826 555.405457,378.223206 
	C564.537781,378.223206 573.660767,378.223206 583.388733,378.223206 
	C569.428345,421.866943 555.538757,465.289581 541.578674,508.932556 
	C533.979858,508.932556 526.374634,508.932556 518.452087,508.932556 
	C510.878754,481.939911 503.316925,454.988068 495.755066,428.036224 
	C495.444427,428.013397 495.133820,427.990540 494.823212,427.967682 
	C492.523438,435.885254 490.220184,443.801819 487.924530,451.720551 
	C482.780243,469.465759 477.530640,487.181824 472.592712,504.984283 
	C471.642944,508.408417 470.204254,509.432709 466.766418,509.257965 
	C460.797089,508.954529 454.801208,509.173676 448.441986,509.173676 
	C434.578796,465.595245 420.755157,422.141144 406.807678,378.297791 
	C416.251587,378.297791 425.305481,378.297791 434.805847,378.297791 
	C442.897980,404.643555 451.065582,431.235138 459.233215,457.826752 
	C459.551117,457.875854 459.869019,457.924957 460.186920,457.974091 
	C467.112823,433.428741 474.038757,408.883423 481.068054,383.941406 
z"/>
<path fill="#FDFDFD" opacity="1.000000" stroke="none" 
	d="
M1055.806030,431.000122 
	C1055.805786,457.139221 1055.805786,482.778351 1055.805786,508.796265 
	C1046.952515,508.796265 1038.390747,508.796265 1029.241211,508.796265 
	C1029.241211,484.519012 1029.241211,460.171173 1029.241211,435.823334 
	C1028.913452,435.745728 1028.585693,435.668121 1028.258057,435.590485 
	C1023.191223,444.267395 1018.119324,452.941345 1013.059265,461.622162 
	C1009.123413,468.374451 1005.058228,475.057556 1001.348267,481.932098 
	C999.947998,484.526825 998.151672,484.872589 995.495605,485.308228 
	C985.804993,486.897644 980.267639,483.123657 975.895691,474.272644 
	C969.366821,461.054749 961.292053,448.600464 953.199707,434.658020 
	C953.199707,460.061890 953.199707,484.209106 953.199707,508.764893 
	C944.024536,508.764893 935.335815,508.764893 926.386475,508.764893 
	C926.386475,465.302856 926.386475,421.902283 926.386475,377.998413 
	C933.839661,377.998413 941.131287,377.807007 948.395935,378.164093 
	C949.805054,378.233398 951.533752,380.197876 952.397583,381.700562 
	C964.330139,402.459503 976.133911,423.292419 987.981384,444.100342 
	C988.856384,445.637115 989.823425,447.121521 991.142639,449.275055 
	C997.687805,437.781921 1003.899353,426.872101 1010.113464,415.963745 
	C1016.615173,404.550598 1023.249695,393.209900 1029.532837,381.677704 
	C1031.142944,378.722504 1032.929810,377.788361 1036.155151,377.919312 
	C1042.467285,378.175568 1048.797119,377.994537 1055.806274,377.994537 
	C1055.806274,395.645508 1055.806274,413.072784 1055.806030,431.000122 
z"/>
<path fill="#FDFDFD" opacity="1.000000" stroke="none" 
	d="
M390.330688,257.521973 
	C364.537048,243.492355 336.146912,258.237213 330.617188,284.624664 
	C326.501312,304.265320 338.399567,324.433289 357.754303,330.559631 
	C377.109192,336.685974 398.652954,327.173309 406.609375,308.960205 
	C406.991150,308.086273 407.111267,307.098083 407.506897,305.569275 
	C394.906677,305.569275 382.671295,305.569275 370.232239,305.569275 
	C370.232239,296.594879 370.232239,288.151917 370.232239,279.351379 
	C392.201843,279.351379 414.228210,279.351379 436.246277,279.351379 
	C440.854797,318.532501 418.989410,347.698853 387.703735,356.593140 
	C355.805634,365.661530 321.442535,348.940460 308.559174,317.905304 
	C295.691345,286.907593 307.878387,251.200562 337.023895,234.505890 
	C366.072144,217.866913 403.364960,225.630707 423.727814,253.099152 
	C416.741455,258.250763 409.748871,263.406952 403.238739,268.207397 
	C398.767975,264.492676 394.701447,261.113831 390.330688,257.521973 
z"/>
<path fill="#FFFFFF" opacity="1.000000" stroke="none" 
	d="
M620.875854,263.999939 
	C620.875854,251.515030 620.875854,239.530136 620.875854,227.188339 
	C629.612061,227.188339 638.146240,227.188339 646.922913,227.188339 
	C646.922913,270.683777 646.922913,314.091583 646.922913,357.994568 
	C639.520447,357.994568 632.229675,358.159210 624.959229,357.848053 
	C623.594910,357.789703 621.996277,356.055664 621.038269,354.714508 
	C603.524719,330.195557 586.094543,305.617065 568.637146,281.057953 
	C567.731567,279.783936 566.740967,278.570282 565.178345,276.529938 
	C565.178345,304.153656 565.178345,330.734192 565.178345,357.657043 
	C556.329224,357.657043 547.777893,357.657043 538.963013,357.657043 
	C538.963013,314.212708 538.963013,270.811127 538.963013,226.839432 
	C546.153137,226.839432 553.278564,226.598145 560.364075,227.022385 
	C561.977356,227.118973 563.788269,229.278427 564.941345,230.893204 
	C582.161255,255.008408 599.284119,279.192902 616.436829,303.356140 
	C617.583618,304.971680 618.786072,306.547638 620.875854,309.379547 
	C620.875854,293.529297 620.875854,279.014618 620.875854,263.999939 
z"/>
<path fill="#FDFDFD" opacity="1.000000" stroke="none" 
	d="
M781.729492,438.585022 
	C784.786560,402.234955 814.897095,375.639587 850.673096,377.268066 
	C886.619263,378.904327 914.230835,407.835693 914.167419,443.797424 
	C914.105713,478.813904 885.789612,508.787323 851.698425,509.922699 
	C814.253845,511.169830 784.178162,484.575439 781.728638,447.995728 
	C781.529358,445.019989 781.702820,442.019287 781.729492,438.585022 
M884.338867,459.644867 
	C887.772400,451.978241 888.588440,444.064972 887.039856,435.785034 
	C883.051880,414.462158 861.581787,399.974182 840.047852,404.214447 
	C818.739136,408.410400 804.340210,429.700378 808.553040,450.782074 
	C811.935547,467.708954 825.237549,480.931976 841.043823,483.079987 
	C860.139648,485.674988 875.173889,477.722412 884.338867,459.644867 
z"/>
<path fill="#FDFDFD" opacity="1.000000" stroke="none" 
	d="
M770.178955,491.103973 
	C758.008423,507.833160 741.041199,511.696869 722.165527,509.792816 
	C704.930908,508.054260 691.249939,499.434296 679.980469,486.154633 
	C685.653503,479.307190 691.257751,472.542664 697.184265,465.389282 
	C699.289551,467.930939 701.035706,470.283325 703.028748,472.403564 
	C712.494385,482.473602 723.954956,486.888275 737.712280,484.014191 
	C743.193787,482.869049 747.761536,480.248810 748.778259,474.026459 
	C749.625549,468.840851 747.239624,464.425415 740.948181,461.492767 
	C732.681030,457.639069 723.962524,454.751434 715.707031,450.875580 
	C709.882874,448.141235 703.943542,445.135254 699.027893,441.073792 
	C679.191040,424.683777 683.391541,393.778595 706.921326,382.001129 
	C723.575623,373.665039 740.274902,375.714752 756.441162,383.393127 
	C762.820557,386.423065 768.499756,390.927399 775.151611,395.178223 
	C769.410339,402.660187 764.200745,409.449249 758.867126,416.399963 
	C754.404175,413.252686 750.455505,409.505280 745.768250,407.410461 
	C740.128967,404.890228 733.934570,403.387604 727.830933,402.239044 
	C725.314331,401.765472 722.296021,403.071594 719.705994,404.081329 
	C715.795898,405.605774 713.782715,408.846619 713.454651,412.976349 
	C713.132874,417.026337 714.862915,420.297180 718.506104,421.965576 
	C726.799500,425.763580 735.237122,429.246155 743.608704,432.874023 
	C747.568970,434.590271 751.633179,436.115845 755.442810,438.121887 
	C775.702087,448.790009 781.911621,470.878540 770.178955,491.103973 
z"/>
<path fill="#FDFDFD" opacity="1.000000" stroke="none" 
	d="
M343.738281,476.729736 
	C340.101624,486.314087 336.350006,495.857391 332.900116,505.508484 
	C331.898102,508.311615 330.566498,509.330994 327.562683,509.246887 
	C319.766541,509.028687 311.960205,509.173553 303.440552,509.173553 
	C320.133484,465.138672 336.600830,421.698914 353.103912,378.164856 
	C360.725006,378.164856 368.186523,378.164856 376.016602,378.164856 
	C392.499603,421.475250 409.024292,464.895264 425.867615,509.152466 
	C416.591980,509.152466 408.031586,509.267273 399.483398,508.997070 
	C398.491425,508.965698 397.193420,506.944244 396.671326,505.599274 
	C393.068207,496.317047 389.633484,486.969482 385.757172,477.460022 
	C385.369690,477.277161 385.364594,477.400757 385.610596,477.024445 
	C378.881134,457.540344 371.905670,438.432556 364.527985,418.223083 
	C358.024628,436.132935 351.960602,452.765656 345.963501,469.422485 
	C345.086609,471.858002 344.528625,474.408325 343.831421,476.847321 
	C343.839783,476.789124 343.738281,476.729736 343.738281,476.729736 
z"/>
<path fill="#FCFCFC" opacity="1.000000" stroke="none" 
	d="
M984.999146,251.844528 
	C978.378784,251.844528 972.257690,251.844528 965.913330,251.844528 
	C965.913330,243.448349 965.913330,235.497147 965.913330,227.183136 
	C998.469421,227.183136 1030.981079,227.183136 1063.734009,227.183136 
	C1063.734009,235.272797 1063.734009,243.331482 1063.734009,251.682220 
	C1051.868896,251.682220 1040.254272,251.682220 1028.025391,251.682220 
	C1028.025391,287.144470 1028.025391,322.323059 1028.025391,357.751770 
	C1018.847107,357.751770 1010.283508,357.751770 1001.269897,357.751770 
	C1001.269897,322.491364 1001.269897,287.431641 1001.269897,251.844528 
	C995.723999,251.844528 990.611145,251.844528 984.999146,251.844528 
z"/>
<path fill="#F8F8F8" opacity="1.000000" stroke="none" 
	d="
M1129.000000,431.143280 
	C1138.980103,431.143280 1148.460205,431.143280 1158.304688,431.143280 
	C1158.304688,439.526154 1158.304688,447.615204 1158.304688,456.121826 
	C1130.360352,456.121826 1102.308960,456.121826 1073.902832,456.121826 
	C1073.902832,447.973969 1073.902832,439.755707 1073.902832,431.143280 
	C1092.243652,431.143280 1110.371826,431.143280 1129.000000,431.143280 
z"/>
<path fill="#F9F9F9" opacity="1.000000" stroke="none" 
	d="
M591.465332,456.471069 
	C590.625427,454.936249 589.947937,453.449463 589.921814,451.951324 
	C589.803955,445.178375 589.870300,438.402252 589.870300,431.400024 
	C618.385315,431.400024 646.403442,431.400024 674.677368,431.400024 
	C674.677368,439.736389 674.677368,447.821533 674.677368,456.513885 
	C647.067078,456.513885 619.497375,456.513885 591.465332,456.471069 
z"/>
<path fill="#FEFEFE" opacity="1.000000" stroke="none" 
	d="
M1136.000000,377.998169 
	C1143.642822,377.998169 1150.785767,377.998169 1158.287354,377.998169 
	C1158.287354,386.254944 1158.287354,394.298523 1158.287354,402.674530 
	C1130.288818,402.674530 1102.274170,402.674530 1073.917480,402.674530 
	C1073.917480,394.737183 1073.917480,386.686707 1073.917480,377.998169 
	C1094.425659,377.998169 1114.962769,377.998169 1136.000000,377.998169 
z"/>
<path fill="#FDFDFD" opacity="1.000000" stroke="none" 
	d="
M438.855957,248.775299 
	C438.854218,241.328186 438.854218,234.362152 438.854218,227.112396 
	C467.252411,227.112396 495.305756,227.112396 523.629150,227.112396 
	C523.629150,235.172897 523.629150,243.108719 523.629150,251.544174 
	C522.290344,251.639603 520.864990,251.828781 519.439453,251.829788 
	C494.115753,251.847763 468.792023,251.865768 443.468506,251.794525 
	C441.656738,251.789429 438.721619,253.100815 438.855957,248.775299 
z"/>
<path fill="#FFFFFF" opacity="1.000000" stroke="none" 
	d="
M674.916626,392.967072 
	C674.916626,396.430847 674.916626,399.402252 674.916626,402.683716 
	C646.605103,402.683716 618.575562,402.683716 590.216309,402.683716 
	C590.216309,394.718781 590.216309,386.665558 590.216309,378.304199 
	C618.165771,378.304199 646.206177,378.304199 674.916626,378.304199 
	C674.916626,382.967621 674.916626,387.721161 674.916626,392.967072 
z"/>
<path fill="#FBFBFB" opacity="1.000000" stroke="none" 
	d="
M1071.914795,355.814758 
	C1071.909180,348.209808 1071.909180,341.089050 1071.909180,333.725739 
	C1100.367432,333.725739 1128.410645,333.725739 1156.705322,333.725739 
	C1156.705322,341.703308 1156.705322,349.464142 1156.705322,357.662842 
	C1155.625366,357.767578 1154.374634,357.993744 1153.123779,357.994751 
	C1127.506470,358.015350 1101.889038,358.038086 1076.272095,357.937164 
	C1074.819336,357.931458 1073.370850,356.869415 1071.914795,355.814758 
z"/>
<path fill="#FBFBFB" opacity="1.000000" stroke="none" 
	d="
M724.000000,358.010254 
	C704.223083,358.010254 684.946167,358.010254 665.349548,358.010254 
	C665.349548,349.879181 665.349548,341.980316 665.349548,333.777100 
	C693.344055,333.777100 721.386047,333.777100 749.752441,333.777100 
	C749.752441,341.705505 749.752441,349.580994 749.752441,358.010254 
	C741.350586,358.010254 732.925293,358.010254 724.000000,358.010254 
z"/>
<path fill="#FBFBFB" opacity="1.000000" stroke="none" 
	d="
M439.334534,357.607269 
	C438.969238,349.510193 438.969238,341.733093 438.969238,333.729736 
	C467.337952,333.729736 495.370514,333.729736 523.653564,333.729736 
	C523.653564,341.729980 523.653564,349.482849 523.653564,357.927277 
	C495.724609,357.927277 467.712219,357.927277 439.334534,357.607269 
z"/>
<path fill="#FFFFFF" opacity="1.000000" stroke="none" 
	d="
M1075.117432,305.167969 
	C1073.726440,304.366577 1072.065552,303.586792 1072.043213,302.762360 
	C1071.840454,295.317078 1071.924561,287.863953 1071.924561,280.210785 
	C1100.310791,280.210785 1128.257812,280.210785 1156.575439,280.210785 
	C1156.575439,288.331604 1156.575439,296.527588 1156.575439,305.168884 
	C1129.511353,305.168884 1102.559448,305.168884 1075.117432,305.167969 
z"/>
<path fill="#FFFFFF" opacity="1.000000" stroke="none" 
	d="
M706.999878,305.169159 
	C692.863953,305.169159 679.228027,305.169159 665.317261,305.169159 
	C665.317261,296.757202 665.317261,288.675964 665.317261,280.295837 
	C693.394043,280.295837 721.456726,280.295837 749.792480,280.295837 
	C749.792480,288.397369 749.792480,296.472229 749.792480,305.169159 
	C735.684998,305.169159 721.592468,305.169159 706.999878,305.169159 
z"/>
<path fill="#FFFFFF" opacity="1.000000" stroke="none" 
	d="
M503.999634,305.169678 
	C482.191040,305.169678 460.882324,305.169678 439.217072,305.169678 
	C439.217072,296.909576 439.217072,288.827789 439.217072,280.371399 
	C467.034424,280.371399 495.092682,280.371399 523.522217,280.371399 
	C523.522217,288.211426 523.522217,296.277496 523.522217,305.169678 
	C517.310364,305.169678 510.904938,305.169678 503.999634,305.169678 
z"/>
<path fill="#FDFDFD" opacity="1.000000" stroke="none" 
	d="
M1117.000000,251.841614 
	C1101.863647,251.841614 1087.227417,251.841614 1072.253906,251.841614 
	C1072.253906,243.475250 1072.253906,235.422424 1072.253906,227.095322 
	C1100.341187,227.095322 1128.396973,227.095322 1156.701904,227.095322 
	C1156.701904,235.189941 1156.701904,243.132324 1156.701904,251.841614 
	C1143.672241,251.841614 1130.586182,251.841614 1117.000000,251.841614 
z"/>
<path fill="#FDFDFD" opacity="1.000000" stroke="none" 
	d="
M731.998779,251.841614 
	C709.537109,251.841614 687.575073,251.841614 665.325317,251.841614 
	C665.325317,243.376312 665.325317,235.319702 665.325317,227.043121 
	C693.455933,227.043121 721.403931,227.043121 749.710815,227.043121 
	C749.710815,235.036545 749.710815,243.109116 749.710815,251.841614 
	C744.041626,251.841614 738.270020,251.841614 731.998779,251.841614 
z"/>
<path fill="#FEFEFE" opacity="1.000000" stroke="none" 
	d="
M1157.578369,485.013306 
	C1158.025635,492.892975 1158.025635,500.630768 1158.025635,508.772827 
	C1130.354492,508.772827 1102.363159,508.772827 1073.973267,508.772827 
	C1073.973267,501.072876 1073.973267,493.218475 1073.973267,484.871429 
	C1101.696289,484.871429 1129.413696,484.871429 1157.578369,485.013306 
z"/>
<path fill="#FFFFFF" opacity="1.000000" stroke="none" 
	d="
M624.000122,484.830841 
	C641.113464,484.830841 657.726807,484.830841 674.627197,484.830841 
	C674.627197,492.917725 674.627197,500.662048 674.627197,508.789307 
	C646.658264,508.789307 618.635193,508.789307 590.249329,508.789307 
	C590.249329,501.137604 590.249329,493.266022 590.249329,484.830841 
	C601.324524,484.830841 612.412292,484.830841 624.000122,484.830841 
z"/>
<path fill="#383937" opacity="1.000000" stroke="none" 
	d="
M899.448669,327.005920 
	C906.219604,307.402924 913.252930,287.802002 920.788391,266.801758 
	C928.174988,287.071411 935.118713,306.125702 942.062256,325.561462 
	C942.062012,325.942963 941.736511,325.962769 941.072083,325.902039 
	C928.700256,325.827423 916.992554,325.769928 905.285828,325.853241 
	C903.774719,325.863983 902.268738,326.603546 900.760376,327.005524 
	C900.410583,327.006348 900.060852,327.007172 899.448669,327.005920 
z"/>
<path fill="#65C901" opacity="1.000000" stroke="none" 
	d="
M385.364594,477.400757 
	C385.364594,477.400757 385.369690,477.277161 385.431702,477.279327 
	C378.701752,487.720520 371.909760,498.159546 364.690247,509.255615 
	C357.584839,498.223816 350.859955,487.782776 343.936646,477.035767 
	C343.738281,476.729736 343.839783,476.789124 344.309326,476.897949 
	C358.307434,477.138123 371.836029,477.269440 385.364594,477.400757 
z"/>
<path fill="#65C901" opacity="1.000000" stroke="none" 
	d="
M901.000244,327.261169 
	C902.268738,326.603546 903.774719,325.863983 905.285828,325.853241 
	C916.992554,325.769928 928.700256,325.827423 940.909302,325.893555 
	C934.856201,336.323730 928.301514,346.701721 921.160034,358.008667 
	C914.212402,347.373749 907.726257,337.445282 901.000244,327.261169 
z"/>
<path fill="#363636" opacity="1.000000" stroke="none" 
	d="
M884.184082,459.993469 
	C875.173889,477.722412 860.139648,485.674988 841.043823,483.079987 
	C825.237549,480.931976 811.935547,467.708954 808.553040,450.782074 
	C804.340210,429.700378 818.739136,408.410400 840.047852,404.214447 
	C861.581787,399.974182 883.051880,414.462158 887.039856,435.785034 
	C888.588440,444.064972 887.772400,451.978241 884.184082,459.993469 
z"/>
<path fill="#353535" opacity="1.000000" stroke="none" 
	d="
M385.610596,477.024414 
	C371.836029,477.269440 358.307434,477.138123 344.300964,476.956177 
	C344.528625,474.408325 345.086609,471.858002 345.963501,469.422485 
	C351.960602,452.765656 358.024628,436.132935 364.527985,418.223083 
	C371.905670,438.432556 378.881134,457.540344 385.610596,477.024414 
z"/>
</svg>